<svg version="1.1" id="Layer_1" xmlns="http://www.w3.org/2000/svg" xmlns:xlink="http://www.w3.org/1999/xlink" x="0px" y="0px"
	 width="100%" viewBox="0 0 1345 411" enable-background="new 0 0 1345 411" xml:space="preserve">
<path fill="#FFFFFF" opacity="1.000000" stroke="none" 
	d="
M1.000000,336.000000 
	C1.000000,224.369400 1.000000,112.738800 1.000000,1.000000 
	C325.359161,1.000000 649.718323,1.000000 974.536255,1.224040 
	C974.994934,1.448079 974.958801,1.894723 974.640991,2.025756 
	C972.859802,3.883744 971.205261,5.484062 969.963806,7.358000 
	C961.339661,20.375254 958.090637,34.439697 959.794678,50.184052 
	C961.385803,64.884445 966.381653,78.130653 974.156250,90.263512 
	C983.108948,104.234970 994.119385,116.571365 1009.559570,123.699799 
	C1015.745056,126.555504 1022.814453,127.458282 1029.102417,130.139191 
	C1038.210815,134.022568 1046.974976,138.713272 1056.003296,143.357056 
	C1056.052124,144.306061 1056.223877,145.148712 1055.879883,145.581055 
	C1047.651245,155.923843 1039.376953,166.230515 1031.068726,176.509567 
	C1030.579590,177.114670 1029.736206,177.433258 1028.915283,177.561676 
	C1023.119263,173.946182 1017.563721,170.467911 1011.778870,167.425583 
	C1007.694885,165.277740 1003.299988,163.721054 998.896851,161.557098 
	C995.413452,149.479523 988.387207,139.988678 979.041077,132.715088 
	C958.040405,116.371346 933.350464,109.820885 907.249268,108.107246 
	C900.554443,107.667702 893.760742,108.588768 887.020630,109.013695 
	C872.292297,109.942200 858.449463,114.050407 845.461121,120.996849 
	C844.445190,121.540184 843.920166,123.001221 843.093323,124.427399 
	C844.140198,128.161957 845.002075,131.619568 846.425049,134.828339 
	C853.379272,150.509827 866.279358,160.285721 880.855408,167.878983 
	C895.663330,175.593048 911.489624,180.413315 928.248047,182.057144 
	C944.178955,183.619781 959.986511,183.997620 975.669128,180.027237 
	C979.390442,179.085114 983.999023,177.014008 986.911987,178.324326 
	C998.714478,183.633316 1010.014832,190.058487 1020.837646,195.724838 
	C1017.894043,207.230530 1014.883972,217.415894 1012.749268,227.781555 
	C1010.588318,238.275604 1009.293457,248.948029 1007.389099,260.998932 
	C1000.265991,254.543518 994.176208,248.373703 987.411072,243.064346 
	C979.597595,236.932175 971.188843,231.558411 962.895508,225.540131 
	C961.689880,224.501175 960.496399,223.912262 959.587402,223.030182 
	C955.865845,219.418716 952.519104,215.363434 948.515686,212.109756 
	C928.486816,195.831589 904.664246,189.769699 879.632935,188.211929 
	C869.069946,187.554581 858.265991,188.679001 847.730408,190.139359 
	C829.834595,192.619934 813.292786,198.868256 799.436340,210.960541 
	C798.821167,211.497467 799.037781,212.987564 799.003906,214.354401 
	C802.794739,217.650787 806.398987,220.690079 810.111633,223.590561 
	C822.409180,233.198090 835.828369,240.932480 850.319153,246.660461 
	C868.402100,253.808411 887.231567,256.973145 906.690674,255.987732 
	C921.196411,255.253159 934.877686,250.713089 948.715454,246.846573 
	C951.063477,246.190506 953.911255,246.149597 956.248291,246.811935 
	C976.095520,252.436905 988.404724,266.843018 997.894714,283.968262 
	C1005.597290,297.868103 1011.461975,312.616699 1011.950195,328.791931 
	C1012.317017,340.946564 1012.397644,353.150208 1011.720520,365.282623 
	C1011.224731,374.167816 1009.298157,382.973694 1007.997925,391.813232 
	C1007.007874,398.543518 1005.999939,405.271179 1005.000000,412.000000 
	C670.333313,412.000000 335.666656,412.000000 1.000000,412.000000 
	C1.000000,406.585083 1.000000,401.253967 1.468637,395.461426 
	C9.261342,394.999939 16.585411,394.999939 23.909479,394.999939 
	C22.994781,393.162231 21.803093,392.746307 20.889912,391.992859 
	C19.494205,390.841156 17.267336,389.521423 17.180891,388.159546 
	C16.783218,381.894562 17.005686,375.590179 17.005686,369.174683 
	C19.552366,369.174683 21.650465,369.174683 23.543961,369.174683 
	C28.485613,377.428162 33.279694,385.473480 38.139774,393.478729 
	C38.523335,394.110535 39.356251,394.867615 39.996246,394.882507 
	C44.977917,394.998474 49.963490,394.946594 54.947857,394.946594 
	C42.338898,389.423340 40.918850,375.930176 32.763287,367.607361 
	C34.344830,366.840698 35.300934,366.543518 36.062553,365.982361 
	C43.876522,360.225159 46.085663,355.440216 43.883968,344.879517 
	C42.760990,339.493011 36.163090,336.000488 27.987423,336.000214 
	C18.991615,335.999939 9.995808,336.000061 1.000000,336.000000 
M731.000916,374.497009 
	C731.000916,360.406921 731.000916,346.316833 731.000916,332.520203 
	C724.949646,332.520203 719.514832,332.520203 714.080017,332.520203 
	C715.341858,334.071625 717.001587,334.243652 718.209412,335.073547 
	C719.671753,336.078308 721.696533,337.553406 721.825989,338.975403 
	C722.271790,343.870697 721.997437,348.831573 721.997437,354.329926 
	C720.271484,353.528076 719.172852,352.860596 717.981934,352.488831 
	C706.615112,348.940552 698.767578,350.335602 693.544373,360.188873 
	C689.708557,367.424774 689.765259,375.755768 691.991089,383.624237 
	C694.771606,393.454041 698.695129,396.590088 708.544800,395.757050 
	C713.146240,395.367859 717.528320,392.384613 721.979248,390.589447 
	C721.979248,391.229248 721.979248,392.945648 721.979248,394.613037 
	C727.514038,394.613037 732.681274,394.613037 737.848511,394.613037 
	C727.478088,392.487793 731.633911,384.446228 731.015320,378.491791 
	C730.912598,377.502960 731.000916,376.494293 731.000916,374.497009 
M302.002136,371.462555 
	C302.894379,369.228729 303.786621,366.994873 304.894440,364.221252 
	C309.088104,374.196594 312.847809,383.245392 316.732452,392.240204 
	C317.193970,393.308807 318.338104,394.082611 319.165833,394.993073 
	C320.096466,394.050446 321.465973,393.271545 321.888428,392.139313 
	C325.317230,382.949371 328.429291,373.639893 331.936340,364.481171 
	C333.542450,360.286743 335.819244,356.349121 337.635223,352.616943 
	C333.901062,352.616943 328.994507,352.616943 324.087982,352.616943 
	C324.078766,352.874817 324.069550,353.132690 324.060333,353.390594 
	C326.368286,354.291992 328.676208,355.193420 330.932800,356.074768 
	C327.735840,365.220581 324.692413,373.927246 321.526337,382.984711 
	C317.903015,373.750153 314.523926,364.887360 310.898071,356.126709 
	C310.242065,354.541809 308.573456,353.375977 307.372375,352.016693 
	C306.251495,353.461060 304.761017,354.748962 304.072144,356.376221 
	C300.641754,364.479675 297.422241,372.672333 293.666321,381.978699 
	C290.718170,372.401550 288.157104,364.082031 285.558197,355.639435 
	C288.423676,354.728455 290.724243,353.997070 293.024811,353.265717 
	C292.962128,352.976410 292.899445,352.687103 292.836761,352.397797 
	C286.287079,352.397797 279.737366,352.397797 273.433716,352.397797 
	C275.019989,355.361145 276.911163,358.026367 277.948700,360.990417 
	C281.455536,371.008911 284.601013,381.153442 288.045807,391.194519 
	C288.533997,392.617584 289.915558,393.734192 290.883636,394.992645 
	C291.923767,393.811707 293.334015,392.794342 293.940643,391.421783 
	C296.738586,385.091309 299.312653,378.661896 302.002136,371.462555 
M894.837952,392.033691 
	C894.174744,392.802063 893.511475,393.570435 892.582214,394.647034 
	C900.787720,394.647034 908.307129,394.647034 917.158203,394.647034 
	C915.232544,393.358032 914.381348,392.297943 913.548462,392.312103 
	C908.907654,392.390778 908.852722,389.520599 908.950806,386.066528 
	C909.125610,379.912018 909.447266,373.705292 908.851013,367.604065 
	C908.414917,363.141907 910.818787,361.051788 913.776733,359.098724 
	C915.344971,358.063232 917.303406,357.584045 919.126343,356.975647 
	C923.467224,355.526978 926.792664,357.260040 926.913635,361.643250 
	C927.188293,371.594055 927.000183,381.557617 927.000183,391.332581 
	C924.438232,392.105652 922.172668,392.789307 919.907043,393.472961 
	C920.003906,393.844421 920.100769,394.215851 920.197632,394.587311 
	C928.078125,394.587311 935.958679,394.587311 943.839233,394.587311 
	C943.918274,394.206390 943.997375,393.825439 944.076416,393.444519 
	C941.924011,392.776520 939.771606,392.108521 936.808289,391.188843 
	C936.567017,387.615936 936.143433,383.420990 936.034729,379.217865 
	C935.892761,373.727966 936.343872,368.201019 935.859436,362.750488 
	C935.605042,359.888580 934.565247,356.571747 932.724609,354.474365 
	C927.303894,348.297577 915.947937,349.944977 908.874390,357.824463 
	C908.874390,355.719208 908.874390,353.995789 908.874390,352.450378 
	C903.385315,352.450378 898.249695,352.450378 893.114075,352.450378 
	C893.869690,354.018463 894.934509,354.968170 895.944458,354.912964 
	C899.133240,354.738586 899.944641,356.671570 899.965027,359.139801 
	C900.044617,368.794525 900.063721,378.451080 899.950012,388.105133 
	C899.920471,390.616058 898.819214,392.559570 894.837952,392.033691 
M670.968506,365.003723 
	C670.968506,373.876404 670.968506,382.749115 670.968506,390.990753 
	C667.355469,392.122742 665.121582,392.822632 662.887695,393.522522 
	C663.001099,393.855957 663.114502,394.189423 663.227905,394.522888 
	C671.110718,394.522888 678.993530,394.522888 686.876282,394.522888 
	C686.937805,394.137177 686.999268,393.751465 687.060730,393.365753 
	C684.868042,392.732849 682.675415,392.099945 679.699707,391.241028 
	C679.483093,387.170593 679.132202,382.633057 679.028320,378.089874 
	C678.906616,372.766052 679.069702,367.436096 678.980103,362.111023 
	C678.892578,356.913025 674.816650,351.574493 670.445374,351.037537 
	C663.320312,350.162354 657.023010,351.888550 651.760437,358.127960 
	C651.760437,355.688812 651.760437,353.940765 651.760437,352.266052 
	C646.345947,352.266052 641.276367,352.266052 636.206726,352.266052 
	C636.893921,353.835999 638.003601,354.943268 639.067322,354.900787 
	C642.362488,354.769196 642.956543,356.803864 642.972778,359.261169 
	C643.035339,368.748810 643.035339,378.237335 642.972778,387.724976 
	C642.956604,390.175537 642.389221,392.230896 639.081177,392.098480 
	C638.013489,392.055756 636.900024,393.155792 635.807495,393.733063 
	C635.944824,393.997253 636.082153,394.261444 636.219482,394.525635 
	C643.775574,394.525635 651.331665,394.525635 660.153381,394.525635 
	C658.276978,393.317719 657.510986,392.397034 656.770569,392.417175 
	C651.830200,392.551575 651.832520,389.416138 651.956726,385.818573 
	C652.128906,380.830811 652.000000,375.832672 652.000000,370.838959 
	C652.000000,362.039459 654.639954,358.251190 663.230713,356.600433 
	C665.181824,356.225555 667.901794,358.451050 669.832092,360.016876 
	C670.675354,360.700928 670.421265,362.737701 670.968506,365.003723 
M589.014893,384.900909 
	C591.113220,390.516754 592.674622,396.072784 600.744812,396.198120 
	C607.394470,396.301392 612.313049,393.914307 617.113892,388.384949 
	C617.113892,391.281281 617.113892,393.005859 617.113892,394.551239 
	C622.608704,394.551239 627.744263,394.551239 633.004211,394.551239 
	C630.465332,392.489044 627.112793,391.080475 626.277527,388.764130 
	C625.162109,385.671143 626.001099,381.873352 626.000854,378.378265 
	C626.000671,376.214630 626.000793,374.051025 626.000793,371.887390 
	C626.000793,365.305145 626.000793,358.722900 626.000793,352.562988 
	C619.889465,352.562988 614.464539,352.562988 607.736267,352.562988 
	C609.647827,353.711487 610.303406,354.445801 610.962219,354.448608 
	C617.592834,354.476837 617.006531,359.191376 617.001770,363.561005 
	C616.995605,369.219727 617.044495,374.878906 616.987488,380.537048 
	C616.933105,385.943726 609.245178,391.558990 603.890503,390.460022 
	C598.866089,389.428925 598.108337,385.701843 598.047913,381.699219 
	C597.900452,371.930450 597.999756,362.157928 597.999756,352.404480 
	C592.408142,352.404480 587.276245,352.404480 580.930054,352.404480 
	C582.670654,353.600677 583.390259,354.521912 584.103882,354.517303 
	C589.252441,354.484161 589.128845,357.809723 589.047852,361.535004 
	C588.885071,369.020905 589.000305,376.512909 589.014893,384.900909 
M845.042969,376.139801 
	C845.356873,376.888123 845.881592,377.617096 845.952209,378.387726 
	C846.684143,386.378784 850.320129,392.455750 858.143921,394.902618 
	C861.785522,396.041504 865.903748,396.013672 869.792419,395.924744 
	C876.250793,395.776978 881.478516,392.852631 884.395935,387.015564 
	C887.399658,381.005737 888.384399,374.789520 887.182312,367.776062 
	C884.325623,351.108124 869.481567,348.108917 857.309204,352.418365 
	C846.804749,356.137329 845.706970,365.796326 845.042969,376.139801 
M504.999847,359.334900 
	C504.999847,352.586517 504.999847,345.838165 504.999847,338.999847 
	C509.220642,338.999847 512.714355,338.999420 516.208069,338.999939 
	C523.459045,339.000946 523.459045,339.001160 524.523987,345.724976 
	C526.258911,345.724976 527.993835,345.724976 529.704163,345.724976 
	C529.704163,342.373901 529.704163,339.304657 529.704163,336.259308 
	C516.008484,336.259308 502.611481,336.259308 489.214508,336.259308 
	C489.713409,337.763367 490.700348,338.973022 491.563080,338.890106 
	C496.285156,338.436432 496.042206,341.428345 496.026367,344.617554 
	C495.962646,357.443878 495.867798,370.272766 496.066376,383.096313 
	C496.143616,388.083496 496.609985,392.821808 489.654480,393.130493 
	C489.434387,393.140259 489.245819,393.860687 488.871796,394.576721 
	C497.413971,394.576721 505.630432,394.576721 513.846863,394.576721 
	C513.027344,393.217896 511.870544,391.981201 510.956238,392.140015 
	C506.665009,392.885590 505.673859,390.137146 505.574860,387.040527 
	C505.354462,380.146423 505.506104,373.240387 505.506104,365.999847 
	C507.955688,365.999847 510.439056,365.807922 512.878113,366.054474 
	C515.261414,366.295441 517.829529,366.543335 519.884338,367.616028 
	C521.512268,368.465851 521.177979,372.743195 524.863220,370.337311 
	C524.863220,366.416351 524.863220,362.449341 524.863220,356.871368 
	C523.045898,358.341492 521.694885,358.988892 521.024292,360.061646 
	C519.124146,363.101196 507.312622,364.514709 505.079926,361.773163 
	C504.829163,361.465271 505.016418,360.800598 504.999847,359.334900 
M173.016693,353.520874 
	C178.136948,354.208374 179.964844,358.802673 178.655197,369.107391 
	C173.275955,370.083832 167.982559,370.773865 162.832886,372.045776 
	C155.879501,373.763153 153.518555,381.455963 154.403061,385.879028 
	C156.870911,398.219849 171.132309,398.260162 177.678131,392.800934 
	C178.871323,391.805817 179.974991,390.703400 181.340424,389.447784 
	C183.487671,395.971893 184.724731,396.537170 193.828461,395.667358 
	C193.828461,394.570679 193.828461,393.453918 193.828461,392.335846 
	C189.852325,392.417145 188.079041,390.638519 188.026077,386.131561 
	C187.932083,378.133087 188.070374,370.131866 187.975540,362.133423 
	C187.908157,356.451050 184.298981,351.577484 178.945465,351.190704 
	C173.929871,350.828369 168.658600,351.058289 163.793961,352.239197 
	C156.383331,354.038147 156.491028,354.481781 157.404663,362.791931 
	C159.470535,362.791931 161.560226,362.791931 163.975983,362.791931 
	C162.960190,356.157715 167.313965,354.287262 173.016693,353.520874 
M770.844604,352.331848 
	C762.328125,349.356781 754.211243,351.006226 746.251221,354.462982 
	C746.251221,357.232574 746.251221,360.002167 746.251221,362.743439 
	C749.512939,363.260498 752.641846,363.761597 752.961609,359.377838 
	C753.290405,354.868317 756.995056,353.340576 760.032288,353.364838 
	C762.379272,353.383575 765.815857,355.928833 766.775269,358.194611 
	C768.216919,361.599396 767.915833,365.742126 768.404968,370.000122 
	C765.247314,370.000122 762.941895,369.869171 760.658203,370.035950 
	C758.240723,370.212494 755.807861,370.511047 753.445374,371.040314 
	C747.735413,372.319580 743.344360,377.239685 743.000671,382.505524 
	C742.572510,389.065002 745.058594,393.651428 751.045044,395.411194 
	C758.104126,397.486237 764.464478,395.549500 769.873901,389.725922 
	C772.211975,396.729065 777.331360,396.634155 783.546265,395.538605 
	C782.800110,394.232910 782.089172,392.251770 781.635559,392.308990 
	C777.171875,392.872192 777.075562,389.795288 777.036438,386.925079 
	C776.929626,379.093781 777.244263,371.249329 776.900513,363.431702 
	C776.719116,359.306702 776.282837,354.818787 770.844604,352.331848 
M555.623169,395.999603 
	C563.785339,396.590515 571.517883,394.906403 575.077576,387.030334 
	C577.376892,381.942841 577.661255,375.716614 577.863159,369.966095 
	C578.124573,362.521240 575.022644,356.218079 567.921814,353.069885 
	C560.855530,349.936920 553.450500,349.521149 546.314636,353.204498 
	C537.016418,358.004089 534.420471,370.555969 536.644287,379.141266 
	C539.656189,390.769073 545.302612,395.880829 555.623169,395.999603 
M60.031948,364.924896 
	C59.900688,365.886993 59.810467,366.856812 59.631760,367.810028 
	C58.024078,376.385529 59.079659,384.324310 65.405975,390.872498 
	C71.657768,397.343536 79.559616,397.274780 87.251709,395.104156 
	C100.543686,391.353333 106.053993,371.820526 98.046196,359.460449 
	C92.236443,350.493073 83.449341,350.146881 74.633102,351.200684 
	C67.386932,352.066772 62.850468,357.329559 60.031948,364.924896 
M143.507141,352.000580 
	C141.353546,352.000580 139.199966,352.000580 137.046371,352.000580 
	C137.026230,352.419250 137.006088,352.837921 136.985962,353.256592 
	C139.064285,354.015930 141.142624,354.775299 143.679092,355.702026 
	C139.358322,365.327271 135.342606,374.272919 130.828278,384.329315 
	C126.471512,373.863129 122.662254,364.712219 118.891052,355.652740 
	C121.207359,354.743652 123.140511,353.984955 125.073662,353.226257 
	C124.983253,352.960907 124.892845,352.695587 124.802437,352.430237 
	C118.243446,352.430237 111.684448,352.430237 105.468521,352.430237 
	C107.573372,355.410675 110.097267,357.998199 111.463478,361.096252 
	C116.376106,372.236328 120.897881,383.548706 125.534744,394.717438 
	C121.001732,399.951111 116.504555,405.143402 111.975891,410.372040 
	C120.138390,412.941833 123.269043,409.175232 126.226387,402.744751 
	C134.012589,385.814392 140.328247,368.132019 150.664200,352.000641 
	C148.636276,352.000641 146.537033,352.000641 143.507141,352.000580 
M426.353607,387.890198 
	C435.091492,398.651794 446.476288,396.598816 458.072418,394.617798 
	C457.921387,393.282867 457.796539,392.179565 457.669342,391.055481 
	C438.036560,394.862183 430.065308,388.541779 432.539948,370.928589 
	C440.878601,370.928589 449.284088,370.928589 457.709747,370.928589 
	C457.709747,367.736389 458.221069,364.840057 457.606384,362.206573 
	C456.202179,356.190521 452.210510,351.973480 446.096161,351.132965 
	C438.148193,350.040405 430.435944,351.126373 426.023682,359.108368 
	C420.898621,368.379730 420.854553,377.844055 426.353607,387.890198 
M377.999603,366.619141 
	C378.071289,359.515472 375.223511,354.060364 368.268250,351.896393 
	C361.850616,349.899750 355.186859,349.873535 349.852997,354.754669 
	C342.921997,361.097321 341.743103,369.149109 342.822174,378.300751 
	C343.892151,387.375092 353.556274,396.937592 362.285889,396.043945 
	C367.465332,395.513763 372.689941,395.424164 378.081329,395.126129 
	C377.911743,393.314270 377.808594,392.212067 377.703278,391.086761 
	C357.761658,394.683105 349.909058,388.437988 352.560822,370.998932 
	C359.978210,370.998932 367.452759,370.857544 374.917267,371.069641 
	C377.835419,371.152557 378.304169,369.872314 377.999603,366.619141 
M201.426239,391.991821 
	C199.896133,392.460205 198.366028,392.928558 196.835922,393.396912 
	C196.976532,393.746704 197.117157,394.096527 197.257782,394.446320 
	C204.819061,394.446320 212.380325,394.446320 221.351349,394.446320 
	C219.230774,393.208405 218.424591,392.332275 217.624832,392.338104 
	C213.157776,392.370544 212.762756,389.733368 212.940659,386.151947 
	C213.179886,381.335938 213.000000,376.499115 213.000000,371.671204 
	C213.000000,358.570679 213.000000,345.470154 213.000000,332.417297 
	C207.393494,332.417297 202.263794,332.417297 196.336838,332.417297 
	C197.411163,333.622711 197.954376,334.717590 198.425522,334.687378 
	C204.658386,334.287964 204.014862,338.597290 204.008713,342.568420 
	C203.986572,356.885620 204.070679,371.203583 203.923584,385.519287 
	C203.901596,387.660034 202.857819,389.790314 201.426239,391.991821 
M264.000000,380.443909 
	C264.000031,368.457367 264.008270,356.470825 263.994598,344.484283 
	C263.990936,341.273071 264.329163,338.563629 268.715302,338.878265 
	C269.811615,338.956940 270.997528,337.787231 272.142242,337.191284 
	C272.020874,336.947479 271.899475,336.703705 271.778107,336.459900 
	C263.562561,336.459900 255.347000,336.459900 247.131454,336.459900 
	C248.304779,338.021790 249.733475,338.953003 251.131775,338.909424 
	C254.470703,338.805359 254.969299,340.880432 254.976501,343.329315 
	C255.020081,358.145905 255.020706,372.962708 254.975876,387.779297 
	C254.968307,390.278595 254.263321,392.164459 251.024033,392.108948 
	C249.639328,392.085205 248.234665,393.226898 246.839081,393.839020 
	C246.983780,394.111115 247.128494,394.383240 247.273193,394.655334 
	C255.454391,394.655334 263.635590,394.655334 273.227081,394.655334 
	C271.086304,393.288666 270.040253,392.041473 269.116943,392.126556 
	C263.625488,392.632721 263.994293,388.940369 263.999664,385.416718 
	C264.001678,384.084869 264.000000,382.753052 264.000000,380.443909 
M384.122528,394.976013 
	C392.059967,394.976013 399.997375,394.976013 407.934814,394.976013 
	C407.964752,394.506775 407.994720,394.037567 408.024689,393.568329 
	C406.404022,393.045959 404.630219,392.778687 403.208282,391.925201 
	C401.937775,391.162628 400.180389,389.781525 400.142731,388.624359 
	C399.877716,380.482025 399.886475,372.324646 400.048889,364.176941 
	C400.135284,359.842865 403.994812,359.409302 407.021179,358.675995 
	C408.074646,358.420715 409.608856,359.693665 410.777252,360.484680 
	C412.213470,361.457001 413.496643,362.655426 415.754303,364.497070 
	C415.754303,358.790710 415.754303,355.037445 415.754303,351.361450 
	C409.267517,349.684082 404.565643,352.657135 400.179321,356.979980 
	C400.016083,355.039062 399.896942,353.622559 399.800018,352.470184 
	C394.018951,352.470184 388.552002,352.470184 381.838379,352.470184 
	C383.715729,353.676117 384.446808,354.537933 385.224823,354.582611 
	C390.753723,354.900299 391.073761,358.639709 391.024689,362.865295 
	C390.937805,370.349884 390.996002,377.836212 391.002197,385.321808 
	C391.005096,388.840271 390.677643,391.956665 385.949707,392.164459 
	C385.025238,392.205078 384.170441,393.831604 384.122528,394.976013 
M805.650574,355.000336 
	C807.817017,355.000061 810.002930,355.169037 812.141357,354.924164 
	C813.130493,354.810974 814.027222,353.890625 814.965881,353.336212 
	C814.084290,352.891083 813.220276,352.109131 812.317932,352.062103 
	C809.243896,351.901947 806.156433,352.000824 802.851929,352.000824 
	C802.851929,348.297699 802.851929,345.331268 802.851929,341.740936 
	C799.747559,342.275085 796.980164,342.751251 793.840454,343.291473 
	C793.840454,346.280548 793.840454,349.046295 793.840454,351.835358 
	C791.335571,351.979431 789.234375,352.100311 787.133179,352.221191 
	C786.992798,352.793762 786.852417,353.366302 786.712036,353.938873 
	C789.064941,354.501099 791.417908,355.063293 794.000183,355.680298 
	C794.000183,364.937561 793.983215,374.251282 794.004822,383.564972 
	C794.027771,393.478668 803.000793,399.579956 812.190674,395.788269 
	C813.126770,395.402069 813.492310,393.633026 814.613708,391.627441 
	C805.478943,394.874451 803.003967,393.131226 803.001343,384.852844 
	C802.998596,376.186981 802.930969,367.519958 803.076660,358.856567 
	C803.098389,357.565063 804.133545,356.290588 805.650574,355.000336 
M834.000000,376.492065 
	C834.000000,368.409882 834.000000,360.327698 834.000000,352.243835 
	C828.349121,352.243835 823.283630,352.243835 818.218079,352.243835 
	C817.787354,352.754517 817.356628,353.265228 816.925964,353.775909 
	C817.958496,354.174561 819.032349,354.996643 820.016724,354.900787 
	C825.097229,354.405975 825.010803,357.768433 825.004700,361.197571 
	C824.989990,369.510803 824.992188,377.824066 825.003784,386.137329 
	C825.008423,389.433777 824.942383,392.530365 820.178406,392.128906 
	C819.457275,392.068146 818.615845,393.434662 817.330750,394.589752 
	C825.890747,394.589752 833.374146,394.589752 840.857544,394.589752 
	C841.458862,394.188507 842.060120,393.787292 842.661438,393.386047 
	C829.767212,392.781067 835.047485,384.252991 834.007568,378.483276 
	C833.949524,378.161224 834.000000,377.819580 834.000000,376.492065 
M829.495728,336.000122 
	C828.063416,336.080688 826.631104,336.161285 825.303833,336.235962 
	C825.303833,338.998871 825.303833,341.396759 825.303833,343.693390 
	C828.348022,343.693390 831.080139,343.693390 834.501831,343.693390 
	C832.371277,341.063904 837.444214,335.780914 829.495728,336.000122 
z"/>
<path fill="#006737" opacity="1.000000" stroke="none" 
	d="
M1055.885986,143.059601 
	C1046.974976,138.713272 1038.210815,134.022568 1029.102417,130.139191 
	C1022.814453,127.458282 1015.745056,126.555504 1009.559570,123.699799 
	C994.119385,116.571365 983.108948,104.234970 974.156250,90.263512 
	C966.381653,78.130653 961.385803,64.884445 959.794678,50.184052 
	C958.090637,34.439697 961.339661,20.375254 969.963806,7.358000 
	C971.205261,5.484062 972.859802,3.883744 974.689270,2.407885 
	C977.035767,8.599439 978.824219,14.613740 981.070618,20.451822 
	C982.358032,23.797636 984.389343,26.857208 986.034302,30.457783 
	C985.655212,32.272854 985.010742,33.685413 985.053040,35.077118 
	C985.272949,42.319141 984.906921,49.691673 986.169556,56.764442 
	C988.387024,69.186134 994.819763,79.897766 1004.069641,88.198959 
	C1010.559021,94.022736 1018.657776,98.053116 1026.056885,103.240799 
	C1033.462891,109.033798 1040.839966,114.484093 1048.277100,119.851128 
	C1048.544434,120.043999 1049.405151,119.414680 1050.354248,119.083824 
	C1057.126953,122.663368 1063.496094,126.399361 1069.986206,129.911682 
	C1070.920166,130.417191 1072.636475,130.232941 1073.651978,129.709976 
	C1080.469482,126.199295 1087.195435,122.510628 1094.150269,119.159424 
	C1095.121826,119.483261 1096.133423,119.868187 1096.630371,119.519661 
	C1102.856323,115.152466 1109.081665,110.775146 1115.110962,106.144966 
	C1116.203003,105.306435 1116.413086,103.319786 1117.414062,101.900620 
	C1130.111572,98.008141 1139.185059,89.647003 1146.912598,79.829292 
	C1158.486206,65.125191 1161.216431,48.229885 1158.099121,29.779346 
	C1161.843506,20.260313 1165.442505,11.076747 1169.360352,2.025534 
	C1183.465332,17.051247 1186.371460,35.154633 1183.722046,54.222084 
	C1181.503662,70.187843 1174.775269,84.688332 1164.820923,97.448288 
	C1156.127441,108.592094 1146.313721,118.739517 1133.052979,124.355141 
	C1123.338501,128.468964 1113.043701,131.197601 1103.248779,135.142105 
	C1097.545654,137.438751 1092.317627,140.915146 1087.568359,143.485855 
	C1096.781982,155.268112 1105.550781,166.481537 1113.901855,177.160721 
	C1124.428101,171.824463 1135.189941,166.368729 1146.223389,161.220169 
	C1155.581909,160.964676 1164.671021,160.429840 1173.750122,159.760483 
	C1174.223755,159.725586 1174.613037,158.545456 1175.405518,158.071777 
	C1188.635986,161.280807 1201.464478,162.867996 1214.844238,161.216644 
	C1226.100586,159.827362 1236.697510,157.046936 1246.537720,151.698624 
	C1253.565796,147.878708 1259.677979,142.779587 1263.324707,135.032211 
	C1266.010620,134.581223 1268.337280,134.340683 1270.526855,133.659424 
	C1280.650391,130.509521 1290.735962,127.237099 1300.908569,124.403526 
	C1299.876953,128.128296 1299.095581,131.610580 1297.611938,134.762146 
	C1290.387085,150.107513 1277.805908,160.160370 1263.306641,167.864120 
	C1247.364502,176.334412 1230.063477,181.529160 1212.188721,182.691742 
	C1195.809204,183.757065 1179.028564,184.826279 1163.135620,178.149673 
	C1161.311523,177.383362 1158.495483,177.290237 1156.805298,178.167664 
	C1146.133911,183.707474 1135.603149,189.526901 1125.176636,195.516373 
	C1124.107422,196.130569 1123.179810,198.806732 1123.627930,199.971176 
	C1129.278687,214.651398 1132.327271,229.889038 1134.015625,245.459656 
	C1134.530396,250.205460 1135.228271,254.931427 1135.985474,260.771667 
	C1141.573608,256.200104 1146.770264,252.731720 1150.995605,248.330933 
	C1160.108398,238.839874 1170.265015,230.894806 1182.043091,225.287735 
	C1187.151001,226.740036 1192.135620,228.092087 1197.210327,228.780746 
	C1202.442627,229.490814 1207.762451,229.555099 1213.417725,229.954071 
	C1244.921631,243.358170 1273.563843,238.943665 1300.336304,217.965469 
	C1302.610718,217.910263 1304.441162,217.925461 1306.254272,217.755356 
	C1319.222900,216.538712 1332.187866,215.284302 1345.013794,214.365768 
	C1343.694336,215.515198 1342.395264,216.212402 1341.354492,217.185944 
	C1329.293823,228.467850 1315.420776,237.072052 1300.455444,243.749374 
	C1283.799072,251.181168 1266.291870,255.384308 1247.916748,256.081207 
	C1229.714111,256.771576 1212.581421,252.173615 1195.450806,247.000687 
	C1193.024048,246.267883 1190.013794,246.306458 1187.561035,247.001892 
	C1164.628296,253.504150 1152.018188,271.092377 1142.212646,290.952148 
	C1136.519043,302.483551 1131.999756,314.735382 1131.998901,328.002411 
	C1131.998047,340.809265 1131.679565,353.639587 1132.351807,366.414795 
	C1132.809448,375.112488 1134.716797,383.735352 1136.005127,392.387329 
	C1136.979004,398.928497 1138.000000,405.462708 1139.000000,412.000000 
	C1128.312378,412.000000 1117.624878,412.000000 1106.463379,411.571960 
	C1106.993164,404.090759 1108.481934,397.065735 1108.892700,389.978180 
	C1109.610962,377.591156 1110.211304,365.147797 1109.802734,352.762909 
	C1109.543701,344.908081 1108.006958,336.942688 1105.929810,329.330688 
	C1100.779175,310.455536 1092.363647,292.861908 1083.173462,275.662628 
	C1080.029663,269.779083 1076.298828,264.209229 1072.370361,257.727539 
	C1070.721069,259.916473 1069.687134,260.950684 1069.047485,262.188660 
	C1060.799194,278.152100 1052.141235,293.926575 1044.529541,310.189941 
	C1036.663452,326.996674 1032.995728,344.891357 1033.983765,363.593628 
	C1034.427979,372.002380 1034.397949,380.443817 1035.078857,388.830200 
	C1035.708130,396.581421 1037.000000,404.278870 1038.000000,412.000000 
	C1027.312500,412.000000 1016.624878,412.000000 1005.468628,412.000000 
	C1005.999939,405.271179 1007.007874,398.543518 1007.997925,391.813232 
	C1009.298157,382.973694 1011.224731,374.167816 1011.720520,365.282623 
	C1012.397644,353.150208 1012.317017,340.946564 1011.950195,328.791931 
	C1011.461975,312.616699 1005.597290,297.868103 997.894714,283.968262 
	C988.404724,266.843018 976.095520,252.436905 956.248291,246.811935 
	C953.911255,246.149597 951.063477,246.190506 948.715454,246.846573 
	C934.877686,250.713089 921.196411,255.253159 906.690674,255.987732 
	C887.231567,256.973145 868.402100,253.808411 850.319153,246.660461 
	C835.828369,240.932480 822.409180,233.198090 810.111633,223.590561 
	C806.398987,220.690079 802.794739,217.650787 799.451904,214.343842 
	C804.534729,214.404465 809.309265,214.764984 814.077637,215.194717 
	C824.091309,216.097122 834.101624,217.035904 844.423767,218.089233 
	C847.479187,220.478165 850.005005,223.094849 853.006287,224.936798 
	C868.050354,234.169632 884.379395,237.895508 902.090515,237.183075 
	C912.063599,236.781906 921.118103,234.195923 930.277832,230.414383 
	C936.757507,229.922623 942.968567,229.298965 949.140869,228.407288 
	C953.799072,227.734344 958.407837,226.718552 963.038574,225.855377 
	C971.188843,231.558411 979.597595,236.932175 987.411072,243.064346 
	C994.176208,248.373703 1000.265991,254.543518 1007.389099,260.998932 
	C1009.293457,248.948029 1010.588318,238.275604 1012.749268,227.781555 
	C1014.883972,217.415894 1017.894043,207.230530 1020.837646,195.724838 
	C1010.014832,190.058487 998.714478,183.633316 986.911987,178.324326 
	C983.999023,177.014008 979.390442,179.085114 975.669128,180.027237 
	C959.986511,183.997620 944.178955,183.619781 928.248047,182.057144 
	C911.489624,180.413315 895.663330,175.593048 880.855408,167.878983 
	C866.279358,160.285721 853.379272,150.509827 846.425049,134.828339 
	C845.002075,131.619568 844.140198,128.161957 843.414917,124.583557 
	C854.824768,127.924072 865.826294,131.541855 876.871765,135.019791 
	C878.155640,135.424072 879.683472,135.053833 881.054626,135.402130 
	C884.907959,140.157990 888.139221,145.514771 892.829834,148.766159 
	C905.601501,157.619095 920.346680,161.713608 935.742676,161.789719 
	C946.478210,161.842773 957.223450,159.919983 968.230103,159.191711 
	C975.358154,160.333893 982.208191,161.297424 989.088318,161.936417 
	C992.377380,162.241898 995.723572,161.931763 999.043884,161.900467 
	C1003.299988,163.721054 1007.694885,165.277740 1011.778870,167.425583 
	C1017.563721,170.467911 1023.119263,173.946182 1028.932861,177.917389 
	C1029.386475,179.164368 1029.537354,179.915146 1029.995239,180.272049 
	C1035.516479,184.575760 1041.059448,188.853088 1046.679932,193.025345 
	C1047.164185,193.384781 1048.239868,192.947571 1049.357422,193.016754 
	C1054.616211,198.100784 1059.690308,202.925858 1064.446655,208.046280 
	C1066.935181,210.725388 1068.865356,213.923172 1071.037598,217.265289 
	C1074.448853,224.189148 1077.849365,230.745575 1081.340210,237.253601 
	C1081.567139,237.676758 1082.487671,237.727951 1083.049316,237.970001 
	C1083.013062,237.987854 1083.044312,237.913345 1083.104492,238.138550 
	C1083.315796,238.649063 1083.536987,238.861298 1083.974121,239.324448 
	C1090.750366,251.554901 1097.548706,263.372131 1103.935547,275.407837 
	C1106.851929,280.903564 1108.956299,286.830139 1110.999756,291.566711 
	C1110.999756,279.436859 1111.073730,266.537323 1110.952026,253.639618 
	C1110.918213,250.057526 1110.581909,246.427094 1109.902100,242.912125 
	C1108.036377,233.264923 1105.914307,223.667297 1104.180054,213.831787 
	C1101.750122,206.198837 1099.045044,198.779938 1096.268799,191.387848 
	C1096.175171,191.138885 1095.363037,191.159851 1094.565918,190.897491 
	C1088.857422,178.994965 1080.817383,169.186142 1072.105713,159.872284 
	C1068.743896,155.028168 1065.285645,150.225189 1061.396484,145.800964 
	C1060.142700,144.374664 1057.755005,143.945099 1055.885986,143.059601 
M1052.510986,250.991394 
	C1054.740234,247.110046 1056.695435,243.029343 1059.312988,239.430405 
	C1060.647949,237.595032 1060.616089,236.430573 1059.429077,234.958481 
	C1053.417847,227.503235 1047.371216,220.076416 1041.337036,212.639648 
	C1040.856079,212.882034 1040.375000,213.124435 1039.894043,213.366837 
	C1038.261353,222.003189 1036.380127,230.601929 1035.065674,239.286438 
	C1033.749146,247.984268 1032.602417,256.745514 1032.110229,265.519836 
	C1031.609985,274.437164 1031.999756,283.404419 1031.999756,291.863800 
	C1038.637573,278.533356 1045.343750,265.065552 1052.510986,250.991394 
z"/>
<path fill="#FFFFFF" opacity="1.000000" stroke="none" 
	d="
M1139.468628,412.000000 
	C1138.000000,405.462708 1136.979004,398.928497 1136.005127,392.387329 
	C1134.716797,383.735352 1132.809448,375.112488 1132.351807,366.414795 
	C1131.679565,353.639587 1131.998047,340.809265 1131.998901,328.002411 
	C1131.999756,314.735382 1136.519043,302.483551 1142.212646,290.952148 
	C1152.018188,271.092377 1164.628296,253.504150 1187.561035,247.001892 
	C1190.013794,246.306458 1193.024048,246.267883 1195.450806,247.000687 
	C1212.581421,252.173615 1229.714111,256.771576 1247.916748,256.081207 
	C1266.291870,255.384308 1283.799072,251.181168 1300.455444,243.749374 
	C1315.420776,237.072052 1329.293823,228.467850 1341.354492,217.185944 
	C1342.395264,216.212402 1343.694336,215.515198 1345.226440,214.380096 
	C1345.579346,214.070526 1346.000000,214.000000 1346.000000,214.000000 
	C1346.000000,279.928650 1346.000000,345.857300 1346.000000,412.000000 
	C1277.312622,412.000000 1208.624878,412.000000 1139.468628,412.000000 
z"/>
<path fill="#FFFFFF" opacity="1.000000" stroke="none" 
	d="
M1181.959351,224.896133 
	C1170.265015,230.894806 1160.108398,238.839874 1150.995605,248.330933 
	C1146.770264,252.731720 1141.573608,256.200104 1135.985474,260.771667 
	C1135.228271,254.931427 1134.530396,250.205460 1134.015625,245.459656 
	C1132.327271,229.889038 1129.278687,214.651398 1123.627930,199.971176 
	C1123.179810,198.806732 1124.107422,196.130569 1125.176636,195.516373 
	C1135.603149,189.526901 1146.133911,183.707474 1156.805298,178.167664 
	C1158.495483,177.290237 1161.311523,177.383362 1163.135620,178.149673 
	C1179.028564,184.826279 1195.809204,183.757065 1212.188721,182.691742 
	C1230.063477,181.529160 1247.364502,176.334412 1263.306641,167.864120 
	C1277.805908,160.160370 1290.387085,150.107513 1297.611938,134.762146 
	C1299.095581,131.610580 1299.876953,128.128296 1300.979004,124.035629 
	C1300.763672,122.866531 1300.658936,122.273064 1300.323853,122.080910 
	C1284.866821,113.215523 1267.971802,109.207069 1250.405151,108.078224 
	C1236.777344,107.202484 1223.257324,108.765289 1209.969849,112.002068 
	C1189.066772,117.093948 1169.688965,125.291466 1155.590942,142.238007 
	C1151.216309,147.496582 1149.101318,154.635147 1145.951904,160.913025 
	C1135.189941,166.368729 1124.428101,171.824463 1113.901855,177.160721 
	C1105.550781,166.481537 1096.781982,155.268112 1087.568359,143.485855 
	C1092.317627,140.915146 1097.545654,137.438751 1103.248779,135.142105 
	C1113.043701,131.197601 1123.338501,128.468964 1133.052979,124.355141 
	C1146.313721,118.739517 1156.127441,108.592094 1164.820923,97.448288 
	C1174.775269,84.688332 1181.503662,70.187843 1183.722046,54.222084 
	C1186.371460,35.154633 1183.465332,17.051247 1169.342407,1.802548 
	C1169.005493,1.447208 1169.000000,1.000000 1169.000000,1.000000 
	C1227.933472,1.000000 1286.866821,1.000000 1346.000000,1.000000 
	C1346.000000,71.020767 1346.000000,141.041733 1345.668701,211.448181 
	C1344.018433,210.579315 1342.812256,209.173782 1341.363647,208.093582 
	C1323.756348,194.964798 1303.322632,189.831512 1281.977295,188.129272 
	C1267.065918,186.940155 1252.136353,188.335922 1237.586182,192.046844 
	C1215.894653,197.579117 1196.490234,207.155685 1181.959351,224.896133 
z"/>
<path fill="#FFFFFF" opacity="1.000000" stroke="none" 
	d="
M1038.468628,412.000000 
	C1037.000000,404.278870 1035.708130,396.581421 1035.078857,388.830200 
	C1034.397949,380.443817 1034.427979,372.002380 1033.983765,363.593628 
	C1032.995728,344.891357 1036.663452,326.996674 1044.529541,310.189941 
	C1052.141235,293.926575 1060.799194,278.152100 1069.047485,262.188660 
	C1069.687134,260.950684 1070.721069,259.916473 1072.370361,257.727539 
	C1076.298828,264.209229 1080.029663,269.779083 1083.173462,275.662628 
	C1092.363647,292.861908 1100.779175,310.455536 1105.929810,329.330688 
	C1108.006958,336.942688 1109.543701,344.908081 1109.802734,352.762909 
	C1110.211304,365.147797 1109.610962,377.591156 1108.892700,389.978180 
	C1108.481934,397.065735 1106.993164,404.090759 1105.994873,411.571960 
	C1083.645752,412.000000 1061.291504,412.000000 1038.468628,412.000000 
z"/>
<path fill="#FFFFFF" opacity="1.000000" stroke="none" 
	d="
M1093.951050,118.879684 
	C1087.195435,122.510628 1080.469482,126.199295 1073.651978,129.709976 
	C1072.636475,130.232941 1070.920166,130.417191 1069.986206,129.911682 
	C1063.496094,126.399361 1057.126953,122.663368 1050.054565,118.914001 
	C1059.467896,95.930443 1057.594604,73.533859 1046.822754,51.383873 
	C1040.981567,39.372860 1032.479370,29.537863 1021.964294,21.668180 
	C1015.598328,16.903893 1008.315918,13.243567 1001.131592,9.728185 
	C994.299866,6.385306 987.060242,3.875898 980.000000,1.000007 
	C1041.020874,1.000000 1102.041870,1.000000 1163.395508,1.362611 
	C1160.194946,2.823491 1156.604736,3.767529 1153.137207,5.044531 
	C1126.338623,14.913702 1104.875488,30.779158 1093.970703,58.289604 
	C1087.960571,73.451553 1085.785278,89.004860 1089.975708,105.051262 
	C1091.187134,109.690414 1092.619873,114.271812 1093.951050,118.879684 
z"/>
<path fill="#007D47" opacity="1.000000" stroke="none" 
	d="
M979.583374,1.000007 
	C987.060242,3.875898 994.299866,6.385306 1001.131592,9.728185 
	C1008.315918,13.243567 1015.598328,16.903893 1021.964294,21.668180 
	C1032.479370,29.537863 1040.981567,39.372860 1046.822754,51.383873 
	C1057.594604,73.533859 1059.467896,95.930443 1049.689697,118.998703 
	C1049.405151,119.414680 1048.544434,120.043999 1048.277100,119.851128 
	C1040.839966,114.484093 1033.462891,109.033798 1026.414795,103.148315 
	C1035.730835,83.277519 1029.702515,64.852470 1016.493103,50.892979 
	C1007.797913,41.704124 997.334656,35.368702 986.085754,30.045654 
	C984.389343,26.857208 982.358032,23.797636 981.070618,20.451822 
	C978.824219,14.613740 977.035767,8.599439 975.007080,2.276851 
	C974.958801,1.894723 974.994934,1.448079 974.997437,1.224040 
	C976.388916,1.000000 977.777771,1.000000 979.583374,1.000007 
z"/>
<path fill="#007D47" opacity="1.000000" stroke="none" 
	d="
M1094.150269,119.159439 
	C1092.619873,114.271812 1091.187134,109.690414 1089.975708,105.051262 
	C1085.785278,89.004860 1087.960571,73.451553 1093.970703,58.289604 
	C1104.875488,30.779158 1126.338623,14.913702 1153.137207,5.044531 
	C1156.604736,3.767529 1160.194946,2.823491 1163.864136,1.362611 
	C1165.388916,1.000000 1166.777832,1.000000 1168.583374,1.000000 
	C1169.000000,1.000000 1169.005493,1.447208 1169.023438,1.670195 
	C1165.442505,11.076747 1161.843506,20.260313 1157.749634,29.843513 
	C1143.109619,36.759506 1130.556396,45.416897 1121.379272,58.203526 
	C1112.125732,71.096634 1109.693481,87.846992 1117.030396,101.863205 
	C1116.413086,103.319786 1116.203003,105.306435 1115.110962,106.144966 
	C1109.081665,110.775146 1102.856323,115.152466 1096.630371,119.519661 
	C1096.133423,119.868187 1095.121826,119.483261 1094.150269,119.159439 
z"/>
<path fill="#007D46" opacity="1.000000" stroke="none" 
	d="
M1182.043091,225.287735 
	C1196.490234,207.155685 1215.894653,197.579117 1237.586182,192.046844 
	C1252.136353,188.335922 1267.065918,186.940155 1281.977295,188.129272 
	C1303.322632,189.831512 1323.756348,194.964798 1341.363647,208.093582 
	C1342.812256,209.173782 1344.018433,210.579315 1345.668701,211.916840 
	C1346.000000,212.444443 1346.000000,212.888901 1346.000000,213.666672 
	C1346.000000,214.000000 1345.579346,214.070526 1345.366699,214.056213 
	C1332.187866,215.284302 1319.222900,216.538712 1306.254272,217.755356 
	C1304.441162,217.925461 1302.610718,217.910263 1300.383789,217.606842 
	C1299.038818,216.163574 1298.271973,214.836258 1297.129395,214.066879 
	C1289.515381,208.939590 1280.570068,208.383713 1271.968628,208.242767 
	C1263.911255,208.110687 1255.687500,209.401077 1247.774292,211.143127 
	C1234.526978,214.059433 1221.953979,218.724243 1213.044067,229.901917 
	C1207.762451,229.555099 1202.442627,229.490814 1197.210327,228.780746 
	C1192.135620,228.092087 1187.151001,226.740036 1182.043091,225.287735 
z"/>
<path fill="#006837" opacity="1.000000" stroke="none" 
	d="
M1.000000,336.333313 
	C9.995808,336.000061 18.991615,335.999939 27.987423,336.000214 
	C36.163090,336.000488 42.760990,339.493011 43.883968,344.879517 
	C46.085663,355.440216 43.876522,360.225159 36.062553,365.982361 
	C35.300934,366.543518 34.344830,366.840698 32.763287,367.607361 
	C40.918850,375.930176 42.338898,389.423340 54.947857,394.946594 
	C49.963490,394.946594 44.977917,394.998474 39.996246,394.882507 
	C39.356251,394.867615 38.523335,394.110535 38.139774,393.478729 
	C33.279694,385.473480 28.485613,377.428162 23.543961,369.174683 
	C21.650465,369.174683 19.552366,369.174683 17.005686,369.174683 
	C17.005686,375.590179 16.783218,381.894562 17.180891,388.159546 
	C17.267336,389.521423 19.494205,390.841156 20.889912,391.992859 
	C21.803093,392.746307 22.994781,393.162231 23.909479,394.999939 
	C16.585411,394.999939 9.261342,394.999939 1.468637,394.999969 
	C1.000000,394.555542 1.000000,394.111115 1.380572,393.207916 
	C7.737103,392.629272 8.293268,389.095642 8.124731,384.023560 
	C7.733519,372.250122 7.768414,360.448273 8.101394,348.671265 
	C8.259562,343.077026 8.327239,338.279358 1.000000,338.000000 
	C1.000000,337.555542 1.000000,337.111115 1.000000,336.333313 
M16.999577,350.514587 
	C16.999577,355.635498 16.999577,360.756439 16.999577,366.502380 
	C23.379982,364.753967 30.258213,365.825714 33.522182,358.946655 
	C36.055305,353.607910 36.459988,347.747375 32.816494,343.116119 
	C28.985279,338.246216 22.907816,338.807800 16.999577,339.159485 
	C16.999577,342.904297 16.999577,346.213593 16.999577,350.514587 
z"/>
<path fill="#FFFFFF" opacity="1.000000" stroke="none" 
	d="
M1.000000,338.468658 
	C8.327239,338.279358 8.259562,343.077026 8.101394,348.671265 
	C7.768414,360.448273 7.733519,372.250122 8.124731,384.023560 
	C8.293268,389.095642 7.737103,392.629272 1.380572,392.874573 
	C1.000000,374.979095 1.000000,356.958221 1.000000,338.468658 
z"/>
<path fill="#007D46" opacity="1.000000" stroke="none" 
	d="
M998.896851,161.557098 
	C995.723572,161.931763 992.377380,162.241898 989.088318,161.936417 
	C982.208191,161.297424 975.358154,160.333893 968.347900,158.879959 
	C968.295105,157.838577 968.571472,157.362549 968.458618,157.011765 
	C965.595337,148.111496 958.132507,143.747604 950.488098,140.348907 
	C932.604553,132.397919 913.512329,131.092911 894.248291,132.118393 
	C889.825562,132.353836 885.479553,134.029709 881.098206,135.042694 
	C879.683472,135.053833 878.155640,135.424072 876.871765,135.019791 
	C865.826294,131.541855 854.824768,127.924072 843.488525,124.191895 
	C843.920166,123.001221 844.445190,121.540184 845.461121,120.996849 
	C858.449463,114.050407 872.292297,109.942200 887.020630,109.013695 
	C893.760742,108.588768 900.554443,107.667702 907.249268,108.107246 
	C933.350464,109.820885 958.040405,116.371346 979.041077,132.715088 
	C988.387207,139.988678 995.413452,149.479523 998.896851,161.557098 
z"/>
<path fill="#007D46" opacity="1.000000" stroke="none" 
	d="
M844.113342,217.959778 
	C834.101624,217.035904 824.091309,216.097122 814.077637,215.194717 
	C809.309265,214.764984 804.534729,214.404465 799.314941,214.023132 
	C799.037781,212.987564 798.821167,211.497467 799.436340,210.960541 
	C813.292786,198.868256 829.834595,192.619934 847.730408,190.139359 
	C858.265991,188.679001 869.069946,187.554581 879.632935,188.211929 
	C904.664246,189.769699 928.486816,195.831589 948.515686,212.109756 
	C952.519104,215.363434 955.865845,219.418716 959.587402,223.030182 
	C960.496399,223.912262 961.689880,224.501175 962.895508,225.540131 
	C958.407837,226.718552 953.799072,227.734344 949.140869,228.407288 
	C942.968567,229.298965 936.757507,229.922623 930.565918,230.271118 
	C925.047729,222.225830 917.072571,218.184937 908.559448,214.937576 
	C891.453552,208.412491 873.849121,206.258484 855.923828,210.252197 
	C851.515808,211.234283 845.504150,211.560272 844.113342,217.959778 
z"/>
<path fill="#006837" opacity="1.000000" stroke="none" 
	d="
M731.000916,374.995911 
	C731.000916,376.494293 730.912598,377.502960 731.015320,378.491791 
	C731.633911,384.446228 727.478088,392.487793 737.848511,394.613037 
	C732.681274,394.613037 727.514038,394.613037 721.979248,394.613037 
	C721.979248,392.945648 721.979248,391.229248 721.979248,390.589447 
	C717.528320,392.384613 713.146240,395.367859 708.544800,395.757050 
	C698.695129,396.590088 694.771606,393.454041 691.991089,383.624237 
	C689.765259,375.755768 689.708557,367.424774 693.544373,360.188873 
	C698.767578,350.335602 706.615112,348.940552 717.981934,352.488831 
	C719.172852,352.860596 720.271484,353.528076 721.997437,354.329926 
	C721.997437,348.831573 722.271790,343.870697 721.825989,338.975403 
	C721.696533,337.553406 719.671753,336.078308 718.209412,335.073547 
	C717.001587,334.243652 715.341858,334.071625 714.080017,332.520203 
	C719.514832,332.520203 724.949646,332.520203 731.000916,332.520203 
	C731.000916,346.316833 731.000916,360.406921 731.000916,374.995911 
M720.049072,357.583984 
	C718.755493,356.934845 717.496704,356.201263 716.162476,355.650635 
	C708.901917,352.654327 702.261108,354.803345 701.185059,362.662842 
	C700.273926,369.317322 700.580566,376.242065 701.259888,382.954926 
	C701.499084,385.318878 703.982056,388.309967 706.234009,389.457520 
	C713.275574,393.045807 721.993591,387.051270 721.999329,379.068573 
	C722.003296,373.591095 722.093506,368.111023 721.939453,362.637878 
	C721.896912,361.125427 721.117798,359.633728 720.049072,357.583984 
z"/>
<path fill="#007D46" opacity="1.000000" stroke="none" 
	d="
M1056.003296,143.357071 
	C1057.755005,143.945099 1060.142700,144.374664 1061.396484,145.800964 
	C1065.285645,150.225189 1068.743896,155.028168 1071.790771,159.977371 
	C1068.855469,162.969498 1066.145142,165.438263 1064.210327,168.411743 
	C1058.977539,176.453308 1054.074585,184.709427 1049.040771,192.880417 
	C1048.239868,192.947571 1047.164185,193.384781 1046.679932,193.025345 
	C1041.059448,188.853088 1035.516479,184.575760 1029.995239,180.272049 
	C1029.537354,179.915146 1029.386475,179.164368 1029.075317,178.240891 
	C1029.736206,177.433258 1030.579590,177.114670 1031.068726,176.509567 
	C1039.376953,166.230515 1047.651245,155.923843 1055.879883,145.581055 
	C1056.223877,145.148712 1056.052124,144.306061 1056.003296,143.357071 
z"/>
<path fill="#006737" opacity="1.000000" stroke="none" 
	d="
M301.984558,371.865234 
	C299.312653,378.661896 296.738586,385.091309 293.940643,391.421783 
	C293.334015,392.794342 291.923767,393.811707 290.883636,394.992645 
	C289.915558,393.734192 288.533997,392.617584 288.045807,391.194519 
	C284.601013,381.153442 281.455536,371.008911 277.948700,360.990417 
	C276.911163,358.026367 275.019989,355.361145 273.433716,352.397797 
	C279.737366,352.397797 286.287079,352.397797 292.836761,352.397797 
	C292.899445,352.687103 292.962128,352.976410 293.024811,353.265717 
	C290.724243,353.997070 288.423676,354.728455 285.558197,355.639435 
	C288.157104,364.082031 290.718170,372.401550 293.666321,381.978699 
	C297.422241,372.672333 300.641754,364.479675 304.072144,356.376221 
	C304.761017,354.748962 306.251495,353.461060 307.372375,352.016693 
	C308.573456,353.375977 310.242065,354.541809 310.898071,356.126709 
	C314.523926,364.887360 317.903015,373.750153 321.526337,382.984711 
	C324.692413,373.927246 327.735840,365.220581 330.932800,356.074768 
	C328.676208,355.193420 326.368286,354.291992 324.060333,353.390594 
	C324.069550,353.132690 324.078766,352.874817 324.087982,352.616943 
	C328.994507,352.616943 333.901062,352.616943 337.635223,352.616943 
	C335.819244,356.349121 333.542450,360.286743 331.936340,364.481171 
	C328.429291,373.639893 325.317230,382.949371 321.888428,392.139313 
	C321.465973,393.271545 320.096466,394.050446 319.165833,394.993073 
	C318.338104,394.082611 317.193970,393.308807 316.732452,392.240204 
	C312.847809,383.245392 309.088104,374.196594 304.894440,364.221252 
	C303.786621,366.994873 302.894379,369.228729 301.984558,371.865234 
z"/>
<path fill="#006837" opacity="1.000000" stroke="none" 
	d="
M895.270752,392.018250 
	C898.819214,392.559570 899.920471,390.616058 899.950012,388.105133 
	C900.063721,378.451080 900.044617,368.794525 899.965027,359.139801 
	C899.944641,356.671570 899.133240,354.738586 895.944458,354.912964 
	C894.934509,354.968170 893.869690,354.018463 893.114075,352.450378 
	C898.249695,352.450378 903.385315,352.450378 908.874390,352.450378 
	C908.874390,353.995789 908.874390,355.719208 908.874390,357.824463 
	C915.947937,349.944977 927.303894,348.297577 932.724609,354.474365 
	C934.565247,356.571747 935.605042,359.888580 935.859436,362.750488 
	C936.343872,368.201019 935.892761,373.727966 936.034729,379.217865 
	C936.143433,383.420990 936.567017,387.615936 936.808289,391.188843 
	C939.771606,392.108521 941.924011,392.776520 944.076416,393.444519 
	C943.997375,393.825439 943.918274,394.206390 943.839233,394.587311 
	C935.958679,394.587311 928.078125,394.587311 920.197632,394.587311 
	C920.100769,394.215851 920.003906,393.844421 919.907043,393.472961 
	C922.172668,392.789307 924.438232,392.105652 927.000183,391.332581 
	C927.000183,381.557617 927.188293,371.594055 926.913635,361.643250 
	C926.792664,357.260040 923.467224,355.526978 919.126343,356.975647 
	C917.303406,357.584045 915.344971,358.063232 913.776733,359.098724 
	C910.818787,361.051788 908.414917,363.141907 908.851013,367.604065 
	C909.447266,373.705292 909.125610,379.912018 908.950806,386.066528 
	C908.852722,389.520599 908.907654,392.390778 913.548462,392.312103 
	C914.381348,392.297943 915.232544,393.358032 917.158203,394.647034 
	C908.307129,394.647034 900.787720,394.647034 892.582214,394.647034 
	C893.511475,393.570435 894.174744,392.802063 895.270752,392.018250 
z"/>
<path fill="#006837" opacity="1.000000" stroke="none" 
	d="
M670.817017,364.581940 
	C670.421265,362.737701 670.675354,360.700928 669.832092,360.016876 
	C667.901794,358.451050 665.181824,356.225555 663.230713,356.600433 
	C654.639954,358.251190 652.000000,362.039459 652.000000,370.838959 
	C652.000000,375.832672 652.128906,380.830811 651.956726,385.818573 
	C651.832520,389.416138 651.830200,392.551575 656.770569,392.417175 
	C657.510986,392.397034 658.276978,393.317719 660.153381,394.525635 
	C651.331665,394.525635 643.775574,394.525635 636.219482,394.525635 
	C636.082153,394.261444 635.944824,393.997253 635.807495,393.733063 
	C636.900024,393.155792 638.013489,392.055756 639.081177,392.098480 
	C642.389221,392.230896 642.956604,390.175537 642.972778,387.724976 
	C643.035339,378.237335 643.035339,368.748810 642.972778,359.261169 
	C642.956543,356.803864 642.362488,354.769196 639.067322,354.900787 
	C638.003601,354.943268 636.893921,353.835999 636.206726,352.266052 
	C641.276367,352.266052 646.345947,352.266052 651.760437,352.266052 
	C651.760437,353.940765 651.760437,355.688812 651.760437,358.127960 
	C657.023010,351.888550 663.320312,350.162354 670.445374,351.037537 
	C674.816650,351.574493 678.892578,356.913025 678.980103,362.111023 
	C679.069702,367.436096 678.906616,372.766052 679.028320,378.089874 
	C679.132202,382.633057 679.483093,387.170593 679.699707,391.241028 
	C682.675415,392.099945 684.868042,392.732849 687.060730,393.365753 
	C686.999268,393.751465 686.937805,394.137177 686.876282,394.522888 
	C678.993530,394.522888 671.110718,394.522888 663.227905,394.522888 
	C663.114502,394.189423 663.001099,393.855957 662.887695,393.522522 
	C665.121582,392.822632 667.355469,392.122742 670.968506,390.990753 
	C670.968506,382.749115 670.968506,373.876404 670.817017,364.581940 
z"/>
<path fill="#006837" opacity="1.000000" stroke="none" 
	d="
M589.007812,384.451660 
	C589.000305,376.512909 588.885071,369.020905 589.047852,361.535004 
	C589.128845,357.809723 589.252441,354.484161 584.103882,354.517303 
	C583.390259,354.521912 582.670654,353.600677 580.930054,352.404480 
	C587.276245,352.404480 592.408142,352.404480 597.999756,352.404480 
	C597.999756,362.157928 597.900452,371.930450 598.047913,381.699219 
	C598.108337,385.701843 598.866089,389.428925 603.890503,390.460022 
	C609.245178,391.558990 616.933105,385.943726 616.987488,380.537048 
	C617.044495,374.878906 616.995605,369.219727 617.001770,363.561005 
	C617.006531,359.191376 617.592834,354.476837 610.962219,354.448608 
	C610.303406,354.445801 609.647827,353.711487 607.736267,352.562988 
	C614.464539,352.562988 619.889465,352.562988 626.000793,352.562988 
	C626.000793,358.722900 626.000793,365.305145 626.000793,371.887390 
	C626.000793,374.051025 626.000671,376.214630 626.000854,378.378265 
	C626.001099,381.873352 625.162109,385.671143 626.277527,388.764130 
	C627.112793,391.080475 630.465332,392.489044 633.004211,394.551239 
	C627.744263,394.551239 622.608704,394.551239 617.113892,394.551239 
	C617.113892,393.005859 617.113892,391.281281 617.113892,388.384949 
	C612.313049,393.914307 607.394470,396.301392 600.744812,396.198120 
	C592.674622,396.072784 591.113220,390.516754 589.007812,384.451660 
z"/>
<path fill="#006737" opacity="1.000000" stroke="none" 
	d="
M845.023438,375.699463 
	C845.706970,365.796326 846.804749,356.137329 857.309204,352.418365 
	C869.481567,348.108917 884.325623,351.108124 887.182312,367.776062 
	C888.384399,374.789520 887.399658,381.005737 884.395935,387.015564 
	C881.478516,392.852631 876.250793,395.776978 869.792419,395.924744 
	C865.903748,396.013672 861.785522,396.041504 858.143921,394.902618 
	C850.320129,392.455750 846.684143,386.378784 845.952209,378.387726 
	C845.881592,377.617096 845.356873,376.888123 845.023438,375.699463 
M862.512146,392.046753 
	C866.686096,394.398102 870.830017,393.354004 874.180054,389.330841 
	C879.504761,382.936249 879.529175,364.354980 874.277832,357.761597 
	C869.526489,351.796051 863.456726,352.219391 858.887390,358.375702 
	C853.660889,365.417389 854.352478,373.274567 855.678345,380.883209 
	C856.362549,384.809387 859.646118,388.282562 862.512146,392.046753 
z"/>
<path fill="#006837" opacity="1.000000" stroke="none" 
	d="
M505.000183,359.818146 
	C505.016418,360.800598 504.829163,361.465271 505.079926,361.773163 
	C507.312622,364.514709 519.124146,363.101196 521.024292,360.061646 
	C521.694885,358.988892 523.045898,358.341492 524.863220,356.871368 
	C524.863220,362.449341 524.863220,366.416351 524.863220,370.337311 
	C521.177979,372.743195 521.512268,368.465851 519.884338,367.616028 
	C517.829529,366.543335 515.261414,366.295441 512.878113,366.054474 
	C510.439056,365.807922 507.955688,365.999847 505.506104,365.999847 
	C505.506104,373.240387 505.354462,380.146423 505.574860,387.040527 
	C505.673859,390.137146 506.665009,392.885590 510.956238,392.140015 
	C511.870544,391.981201 513.027344,393.217896 513.846863,394.576721 
	C505.630432,394.576721 497.413971,394.576721 488.871796,394.576721 
	C489.245819,393.860687 489.434387,393.140259 489.654480,393.130493 
	C496.609985,392.821808 496.143616,388.083496 496.066376,383.096313 
	C495.867798,370.272766 495.962646,357.443878 496.026367,344.617554 
	C496.042206,341.428345 496.285156,338.436432 491.563080,338.890106 
	C490.700348,338.973022 489.713409,337.763367 489.214508,336.259308 
	C502.611481,336.259308 516.008484,336.259308 529.704163,336.259308 
	C529.704163,339.304657 529.704163,342.373901 529.704163,345.724976 
	C527.993835,345.724976 526.258911,345.724976 524.521729,345.720154 
	C523.459045,339.001160 523.459045,339.000946 516.208069,338.999939 
	C512.714355,338.999420 509.220642,338.999847 504.999847,338.999847 
	C504.999847,345.838165 504.999847,352.586517 505.000183,359.818146 
z"/>
<path fill="#006737" opacity="1.000000" stroke="none" 
	d="
M172.695587,353.291077 
	C167.313965,354.287262 162.960190,356.157715 163.975983,362.791931 
	C161.560226,362.791931 159.470535,362.791931 157.404663,362.791931 
	C156.491028,354.481781 156.383331,354.038147 163.793961,352.239197 
	C168.658600,351.058289 173.929871,350.828369 178.945465,351.190704 
	C184.298981,351.577484 187.908157,356.451050 187.975540,362.133423 
	C188.070374,370.131866 187.932083,378.133087 188.026077,386.131561 
	C188.079041,390.638519 189.852325,392.417145 193.828461,392.335846 
	C193.828461,393.453918 193.828461,394.570679 193.828461,395.667358 
	C184.724731,396.537170 183.487671,395.971893 181.340424,389.447784 
	C179.974991,390.703400 178.871323,391.805817 177.678131,392.800934 
	C171.132309,398.260162 156.870911,398.219849 154.403061,385.879028 
	C153.518555,381.455963 155.879501,373.763153 162.832886,372.045776 
	C167.982559,370.773865 173.275955,370.083832 178.655197,369.107391 
	C179.964844,358.802673 178.136948,354.208374 172.695587,353.291077 
M164.025711,384.955048 
	C165.515991,389.169647 168.634506,390.991974 172.921463,390.500671 
	C177.890976,389.931091 179.695496,386.977753 179.075562,382.008942 
	C178.670715,378.764191 178.999191,375.427979 178.999191,372.088806 
	C169.725723,373.098755 162.600937,374.974365 164.025711,384.955048 
z"/>
<path fill="#006737" opacity="1.000000" stroke="none" 
	d="
M771.134705,352.614227 
	C776.282837,354.818787 776.719116,359.306702 776.900513,363.431702 
	C777.244263,371.249329 776.929626,379.093781 777.036438,386.925079 
	C777.075562,389.795288 777.171875,392.872192 781.635559,392.308990 
	C782.089172,392.251770 782.800110,394.232910 783.546265,395.538605 
	C777.331360,396.634155 772.211975,396.729065 769.873901,389.725922 
	C764.464478,395.549500 758.104126,397.486237 751.045044,395.411194 
	C745.058594,393.651428 742.572510,389.065002 743.000671,382.505524 
	C743.344360,377.239685 747.735413,372.319580 753.445374,371.040314 
	C755.807861,370.511047 758.240723,370.212494 760.658203,370.035950 
	C762.941895,369.869171 765.247314,370.000122 768.404968,370.000122 
	C767.915833,365.742126 768.216919,361.599396 766.775269,358.194611 
	C765.815857,355.928833 762.379272,353.383575 760.032288,353.364838 
	C756.995056,353.340576 753.290405,354.868317 752.961609,359.377838 
	C752.641846,363.761597 749.512939,363.260498 746.251221,362.743439 
	C746.251221,360.002167 746.251221,357.232574 746.250610,354.459900 
	C754.211243,351.006226 762.328125,349.356781 771.134705,352.614227 
M761.673523,372.999237 
	C754.596313,374.392181 750.795593,379.899353 753.021301,385.609192 
	C754.401062,389.148773 757.243774,390.922943 760.838806,390.504303 
	C764.927979,390.028137 768.962769,389.131073 768.094360,383.146027 
	C767.579895,379.600159 768.000244,375.918579 768.000244,371.733490 
	C765.849487,372.227417 764.184326,372.609833 761.673523,372.999237 
z"/>
<path fill="#006737" opacity="1.000000" stroke="none" 
	d="
M555.163574,395.999634 
	C545.302612,395.880829 539.656189,390.769073 536.644287,379.141266 
	C534.420471,370.555969 537.016418,358.004089 546.314636,353.204498 
	C553.450500,349.521149 560.855530,349.936920 567.921814,353.069885 
	C575.022644,356.218079 578.124573,362.521240 577.863159,369.966095 
	C577.661255,375.716614 577.376892,381.942841 575.077576,387.030334 
	C571.517883,394.906403 563.785339,396.590515 555.163574,395.999634 
M547.893921,385.420990 
	C548.246582,386.146637 548.417725,387.090271 548.982788,387.560791 
	C551.621460,389.757690 554.238281,393.307312 557.110596,393.560181 
	C560.672180,393.873779 564.202271,391.380219 566.042908,387.263000 
	C570.141052,378.096497 570.309448,369.234467 566.117737,359.986633 
	C564.147095,355.639069 560.591919,353.022980 556.896667,353.456482 
	C553.890320,353.809204 550.412659,357.141022 548.687195,360.063049 
	C544.068176,367.885284 544.284546,376.387634 547.893921,385.420990 
z"/>
<path fill="#006737" opacity="1.000000" stroke="none" 
	d="
M60.186844,364.537415 
	C62.850468,357.329559 67.386932,352.066772 74.633102,351.200684 
	C83.449341,350.146881 92.236443,350.493073 98.046196,359.460449 
	C106.053993,371.820526 100.543686,391.353333 87.251709,395.104156 
	C79.559616,397.274780 71.657768,397.343536 65.405975,390.872498 
	C59.079659,384.324310 58.024078,376.385529 59.631760,367.810028 
	C59.810467,366.856812 59.900688,365.886993 60.186844,364.537415 
M86.446381,391.033447 
	C87.707787,388.786896 89.265060,386.653900 90.178497,384.273804 
	C93.796997,374.845245 92.811317,365.697937 87.545166,357.165314 
	C84.928429,352.925537 78.166794,352.499054 74.559135,355.958038 
	C68.540077,361.729034 65.782242,375.104492 70.972824,385.950165 
	C74.599174,393.527374 78.247032,394.947083 86.446381,391.033447 
z"/>
<path fill="#006736" opacity="1.000000" stroke="none" 
	d="
M143.972473,352.000610 
	C146.537033,352.000641 148.636276,352.000641 150.664200,352.000641 
	C140.328247,368.132019 134.012589,385.814392 126.226387,402.744751 
	C123.269043,409.175232 120.138390,412.941833 111.975891,410.372040 
	C116.504555,405.143402 121.001732,399.951111 125.534744,394.717438 
	C120.897881,383.548706 116.376106,372.236328 111.463478,361.096252 
	C110.097267,357.998199 107.573372,355.410675 105.468521,352.430237 
	C111.684448,352.430237 118.243446,352.430237 124.802437,352.430237 
	C124.892845,352.695587 124.983253,352.960907 125.073662,353.226257 
	C123.140511,353.984955 121.207359,354.743652 118.891052,355.652740 
	C122.662254,364.712219 126.471512,373.863129 130.828278,384.329315 
	C135.342606,374.272919 139.358322,365.327271 143.679092,355.702026 
	C141.142624,354.775299 139.064285,354.015930 136.985962,353.256592 
	C137.006088,352.837921 137.026230,352.419250 137.046371,352.000580 
	C139.199966,352.000580 141.353546,352.000580 143.972473,352.000610 
z"/>
<path fill="#006737" opacity="1.000000" stroke="none" 
	d="
M426.184204,387.552307 
	C420.854553,377.844055 420.898621,368.379730 426.023682,359.108368 
	C430.435944,351.126373 438.148193,350.040405 446.096161,351.132965 
	C452.210510,351.973480 456.202179,356.190521 457.606384,362.206573 
	C458.221069,364.840057 457.709747,367.736389 457.709747,370.928589 
	C449.284088,370.928589 440.878601,370.928589 432.539948,370.928589 
	C430.065308,388.541779 438.036560,394.862183 457.669342,391.055481 
	C457.796539,392.179565 457.921387,393.282867 458.072418,394.617798 
	C446.476288,396.598816 435.091492,398.651794 426.184204,387.552307 
M441.475403,369.000549 
	C443.909668,369.000549 446.343964,369.000549 448.880951,369.000549 
	C449.092712,363.036530 449.926056,357.218781 444.054321,354.213348 
	C442.320496,353.325897 438.831421,353.896027 437.201721,355.159241 
	C432.901459,358.492462 431.921844,363.468781 432.179596,369.000549 
	C435.223511,369.000549 437.866058,369.000549 441.475403,369.000549 
z"/>
<path fill="#006737" opacity="1.000000" stroke="none" 
	d="
M377.999512,367.076447 
	C378.304169,369.872314 377.835419,371.152557 374.917267,371.069641 
	C367.452759,370.857544 359.978210,370.998932 352.560822,370.998932 
	C349.909058,388.437988 357.761658,394.683105 377.703278,391.086761 
	C377.808594,392.212067 377.911743,393.314270 378.081329,395.126129 
	C372.689941,395.424164 367.465332,395.513763 362.285889,396.043945 
	C353.556274,396.937592 343.892151,387.375092 342.822174,378.300751 
	C341.743103,369.149109 342.921997,361.097321 349.852997,354.754669 
	C355.186859,349.873535 361.850616,349.899750 368.268250,351.896393 
	C375.223511,354.060364 378.071289,359.515472 377.999512,367.076447 
M356.668335,369.000549 
	C360.750977,369.000549 364.833588,369.000549 369.511780,369.000549 
	C368.931061,364.876709 368.938202,361.346375 367.876068,358.174072 
	C366.005280,352.586639 359.135529,351.621826 355.977081,356.584137 
	C353.761658,360.064850 352.629242,364.234924 350.729584,368.774994 
	C353.447845,368.897827 354.584381,368.949188 356.668335,369.000549 
z"/>
<path fill="#006837" opacity="1.000000" stroke="none" 
	d="
M201.856476,391.958618 
	C202.857819,389.790314 203.901596,387.660034 203.923584,385.519287 
	C204.070679,371.203583 203.986572,356.885620 204.008713,342.568420 
	C204.014862,338.597290 204.658386,334.287964 198.425522,334.687378 
	C197.954376,334.717590 197.411163,333.622711 196.336838,332.417297 
	C202.263794,332.417297 207.393494,332.417297 213.000000,332.417297 
	C213.000000,345.470154 213.000000,358.570679 213.000000,371.671204 
	C213.000000,376.499115 213.179886,381.335938 212.940659,386.151947 
	C212.762756,389.733368 213.157776,392.370544 217.624832,392.338104 
	C218.424591,392.332275 219.230774,393.208405 221.351349,394.446320 
	C212.380325,394.446320 204.819061,394.446320 197.257782,394.446320 
	C197.117157,394.096527 196.976532,393.746704 196.835922,393.396912 
	C198.366028,392.928558 199.896133,392.460205 201.856476,391.958618 
z"/>
<path fill="#006837" opacity="1.000000" stroke="none" 
	d="
M264.000000,380.932556 
	C264.000000,382.753052 264.001678,384.084869 263.999664,385.416718 
	C263.994293,388.940369 263.625488,392.632721 269.116943,392.126556 
	C270.040253,392.041473 271.086304,393.288666 273.227081,394.655334 
	C263.635590,394.655334 255.454391,394.655334 247.273193,394.655334 
	C247.128494,394.383240 246.983780,394.111115 246.839081,393.839020 
	C248.234665,393.226898 249.639328,392.085205 251.024033,392.108948 
	C254.263321,392.164459 254.968307,390.278595 254.975876,387.779297 
	C255.020706,372.962708 255.020081,358.145905 254.976501,343.329315 
	C254.969299,340.880432 254.470703,338.805359 251.131775,338.909424 
	C249.733475,338.953003 248.304779,338.021790 247.131454,336.459900 
	C255.347000,336.459900 263.562561,336.459900 271.778107,336.459900 
	C271.899475,336.703705 272.020874,336.947479 272.142242,337.191284 
	C270.997528,337.787231 269.811615,338.956940 268.715302,338.878265 
	C264.329163,338.563629 263.990936,341.273071 263.994598,344.484283 
	C264.008270,356.470825 264.000031,368.457367 264.000000,380.932556 
z"/>
<path fill="#006837" opacity="1.000000" stroke="none" 
	d="
M383.703003,394.851318 
	C384.170441,393.831604 385.025238,392.205078 385.949707,392.164459 
	C390.677643,391.956665 391.005096,388.840271 391.002197,385.321808 
	C390.996002,377.836212 390.937805,370.349884 391.024689,362.865295 
	C391.073761,358.639709 390.753723,354.900299 385.224823,354.582611 
	C384.446808,354.537933 383.715729,353.676117 381.838379,352.470184 
	C388.552002,352.470184 394.018951,352.470184 399.800018,352.470184 
	C399.896942,353.622559 400.016083,355.039062 400.179321,356.979980 
	C404.565643,352.657135 409.267517,349.684082 415.754303,351.361450 
	C415.754303,355.037445 415.754303,358.790710 415.754303,364.497070 
	C413.496643,362.655426 412.213470,361.457001 410.777252,360.484680 
	C409.608856,359.693665 408.074646,358.420715 407.021179,358.675995 
	C403.994812,359.409302 400.135284,359.842865 400.048889,364.176941 
	C399.886475,372.324646 399.877716,380.482025 400.142731,388.624359 
	C400.180389,389.781525 401.937775,391.162628 403.208282,391.925201 
	C404.630219,392.778687 406.404022,393.045959 408.024689,393.568329 
	C407.994720,394.037567 407.964752,394.506775 407.934814,394.976013 
	C399.997375,394.976013 392.059967,394.976013 383.703003,394.851318 
z"/>
<path fill="#006837" opacity="1.000000" stroke="none" 
	d="
M805.175232,355.004272 
	C804.133545,356.290588 803.098389,357.565063 803.076660,358.856567 
	C802.930969,367.519958 802.998596,376.186981 803.001343,384.852844 
	C803.003967,393.131226 805.478943,394.874451 814.613708,391.627441 
	C813.492310,393.633026 813.126770,395.402069 812.190674,395.788269 
	C803.000793,399.579956 794.027771,393.478668 794.004822,383.564972 
	C793.983215,374.251282 794.000183,364.937561 794.000183,355.680298 
	C791.417908,355.063293 789.064941,354.501099 786.712036,353.938873 
	C786.852417,353.366302 786.992798,352.793762 787.133179,352.221191 
	C789.234375,352.100311 791.335571,351.979431 793.840454,351.835358 
	C793.840454,349.046295 793.840454,346.280548 793.840454,343.291473 
	C796.980164,342.751251 799.747559,342.275085 802.851929,341.740936 
	C802.851929,345.331268 802.851929,348.297699 802.851929,352.000824 
	C806.156433,352.000824 809.243896,351.901947 812.317932,352.062103 
	C813.220276,352.109131 814.084290,352.891083 814.965881,353.336212 
	C814.027222,353.890625 813.130493,354.810974 812.141357,354.924164 
	C810.002930,355.169037 807.817017,355.000061 805.175232,355.004272 
z"/>
<path fill="#006837" opacity="1.000000" stroke="none" 
	d="
M834.000000,376.989563 
	C834.000000,377.819580 833.949524,378.161224 834.007568,378.483276 
	C835.047485,384.252991 829.767212,392.781067 842.661438,393.386047 
	C842.060120,393.787292 841.458862,394.188507 840.857544,394.589752 
	C833.374146,394.589752 825.890747,394.589752 817.330750,394.589752 
	C818.615845,393.434662 819.457275,392.068146 820.178406,392.128906 
	C824.942383,392.530365 825.008423,389.433777 825.003784,386.137329 
	C824.992188,377.824066 824.989990,369.510803 825.004700,361.197571 
	C825.010803,357.768433 825.097229,354.405975 820.016724,354.900787 
	C819.032349,354.996643 817.958496,354.174561 816.925964,353.775909 
	C817.356628,353.265228 817.787354,352.754517 818.218079,352.243835 
	C823.283630,352.243835 828.349121,352.243835 834.000000,352.243835 
	C834.000000,360.327698 834.000000,368.409882 834.000000,376.989563 
z"/>
<path fill="#006837" opacity="1.000000" stroke="none" 
	d="
M829.965088,336.000153 
	C837.444214,335.780914 832.371277,341.063904 834.501831,343.693390 
	C831.080139,343.693390 828.348022,343.693390 825.303833,343.693390 
	C825.303833,341.396759 825.303833,338.998871 825.303833,336.235962 
	C826.631104,336.161285 828.063416,336.080688 829.965088,336.000153 
z"/>
<path fill="#007D47" opacity="1.000000" stroke="none" 
	d="
M1146.223389,161.220184 
	C1149.101318,154.635147 1151.216309,147.496582 1155.590942,142.238007 
	C1169.688965,125.291466 1189.066772,117.093948 1209.969849,112.002068 
	C1223.257324,108.765289 1236.777344,107.202484 1250.405151,108.078224 
	C1267.971802,109.207069 1284.866821,113.215523 1300.323853,122.080910 
	C1300.658936,122.273064 1300.763672,122.866531 1300.905518,123.640694 
	C1290.735962,127.237099 1280.650391,130.509521 1270.526855,133.659424 
	C1268.337280,134.340683 1266.010620,134.581223 1262.963867,134.867737 
	C1257.946167,133.808014 1253.740112,132.310623 1249.472046,132.106003 
	C1231.428223,131.240952 1213.526733,132.276016 1196.505859,139.065903 
	C1187.229980,142.766159 1178.383545,147.282883 1175.041626,157.898514 
	C1174.613037,158.545456 1174.223755,159.725586 1173.750122,159.760483 
	C1164.671021,160.429840 1155.581909,160.964676 1146.223389,161.220184 
z"/>
<path fill="#FFFFFF" opacity="1.000000" stroke="none" 
	d="
M986.034302,30.457787 
	C997.334656,35.368702 1007.797913,41.704124 1016.493103,50.892979 
	C1029.702515,64.852470 1035.730835,83.277519 1026.395752,102.791908 
	C1018.657776,98.053116 1010.559021,94.022736 1004.069641,88.198959 
	C994.819763,79.897766 988.387024,69.186134 986.169556,56.764442 
	C984.906921,49.691673 985.272949,42.319141 985.053040,35.077118 
	C985.010742,33.685413 985.655212,32.272854 986.034302,30.457787 
z"/>
<path fill="#FFFFFF" opacity="1.000000" stroke="none" 
	d="
M1117.414062,101.900620 
	C1109.693481,87.846992 1112.125732,71.096634 1121.379272,58.203526 
	C1130.556396,45.416897 1143.109619,36.759506 1157.604248,30.178982 
	C1161.216431,48.229885 1158.486206,65.125191 1146.912598,79.829292 
	C1139.185059,89.647003 1130.111572,98.008141 1117.414062,101.900620 
z"/>
<path fill="#FFFFFF" opacity="1.000000" stroke="none" 
	d="
M1175.405518,158.071777 
	C1178.383545,147.282883 1187.229980,142.766159 1196.505859,139.065903 
	C1213.526733,132.276016 1231.428223,131.240952 1249.472046,132.106003 
	C1253.740112,132.310623 1257.946167,133.808014 1262.541504,134.875183 
	C1259.677979,142.779587 1253.565796,147.878708 1246.537720,151.698624 
	C1236.697510,157.046936 1226.100586,159.827362 1214.844238,161.216644 
	C1201.464478,162.867996 1188.635986,161.280807 1175.405518,158.071777 
z"/>
<path fill="#FFFFFF" opacity="1.000000" stroke="none" 
	d="
M881.054626,135.402130 
	C885.479553,134.029709 889.825562,132.353836 894.248291,132.118393 
	C913.512329,131.092911 932.604553,132.397919 950.488098,140.348907 
	C958.132507,143.747604 965.595337,148.111496 968.458618,157.011765 
	C968.571472,157.362549 968.295105,157.838577 968.082153,158.568024 
	C957.223450,159.919983 946.478210,161.842773 935.742676,161.789719 
	C920.346680,161.713608 905.601501,157.619095 892.829834,148.766159 
	C888.139221,145.514771 884.907959,140.157990 881.054626,135.402130 
z"/>
<path fill="#FFFFFF" opacity="1.000000" stroke="none" 
	d="
M844.423767,218.089249 
	C845.504150,211.560272 851.515808,211.234283 855.923828,210.252197 
	C873.849121,206.258484 891.453552,208.412491 908.559448,214.937576 
	C917.072571,218.184937 925.047729,222.225830 930.280640,230.024017 
	C921.118103,234.195923 912.063599,236.781906 902.090515,237.183075 
	C884.379395,237.895508 868.050354,234.169632 853.006287,224.936798 
	C850.005005,223.094849 847.479187,220.478165 844.423767,218.089249 
z"/>
<path fill="#FFFFFF" opacity="1.000000" stroke="none" 
	d="
M1213.417725,229.954071 
	C1221.953979,218.724243 1234.526978,214.059433 1247.774292,211.143127 
	C1255.687500,209.401077 1263.911255,208.110687 1271.968628,208.242767 
	C1280.570068,208.383713 1289.515381,208.939590 1297.129395,214.066879 
	C1298.271973,214.836258 1299.038818,216.163574 1299.931885,217.591461 
	C1273.563843,238.943665 1244.921631,243.358170 1213.417725,229.954071 
z"/>
<path fill="#FFFFFF" opacity="1.000000" stroke="none" 
	d="
M1049.357422,193.016754 
	C1054.074585,184.709427 1058.977539,176.453308 1064.210327,168.411743 
	C1066.145142,165.438263 1068.855469,162.969498 1071.527100,160.165436 
	C1080.817383,169.186142 1088.857422,178.994965 1094.611816,191.251862 
	C1089.329712,197.662048 1083.675415,203.554321 1078.036865,209.461472 
	C1075.689941,211.920151 1073.376465,214.410660 1071.047729,216.886673 
	C1068.865356,213.923172 1066.935181,210.725388 1064.446655,208.046280 
	C1059.690308,202.925858 1054.616211,198.100784 1049.357422,193.016754 
z"/>
<path fill="#FFFFFF" opacity="1.000000" stroke="none" 
	d="
M1103.893555,214.050049 
	C1105.914307,223.667297 1108.036377,233.264923 1109.902100,242.912125 
	C1110.581909,246.427094 1110.918213,250.057526 1110.952026,253.639618 
	C1111.073730,266.537323 1110.999756,279.436859 1110.999756,291.566711 
	C1108.956299,286.830139 1106.851929,280.903564 1103.935547,275.407837 
	C1097.548706,263.372131 1090.750366,251.554901 1084.022217,239.058472 
	C1083.631104,238.283463 1083.337769,238.098404 1083.044312,237.913345 
	C1083.044312,237.913345 1083.013062,237.987854 1083.015625,237.606628 
	C1085.048950,234.010452 1086.640259,230.378601 1089.207153,227.671936 
	C1093.792236,222.836975 1098.965942,218.560196 1103.893555,214.050049 
z"/>
<path fill="#FFFFFF" opacity="1.000000" stroke="none" 
	d="
M1052.280518,251.294556 
	C1045.343750,265.065552 1038.637573,278.533356 1031.999756,291.863800 
	C1031.999756,283.404419 1031.609985,274.437164 1032.110229,265.519836 
	C1032.602417,256.745514 1033.749146,247.984268 1035.065674,239.286438 
	C1036.380127,230.601929 1038.261353,222.003189 1039.894043,213.366837 
	C1040.375000,213.124435 1040.856079,212.882034 1041.337036,212.639648 
	C1047.371216,220.076416 1053.417847,227.503235 1059.429077,234.958481 
	C1060.616089,236.430573 1060.647949,237.595032 1059.312988,239.430405 
	C1056.695435,243.029343 1054.740234,247.110046 1052.280518,251.294556 
z"/>
<path fill="#007D47" opacity="1.000000" stroke="none" 
	d="
M1104.179932,213.831772 
	C1098.965942,218.560196 1093.792236,222.836975 1089.207153,227.671936 
	C1086.640259,230.378601 1085.048950,234.010452 1083.051880,237.588776 
	C1082.487671,237.727951 1081.567139,237.676758 1081.340210,237.253601 
	C1077.849365,230.745575 1074.448853,224.189148 1071.037598,217.265305 
	C1073.376465,214.410660 1075.689941,211.920151 1078.036865,209.461472 
	C1083.675415,203.554321 1089.329712,197.662048 1094.931641,191.409393 
	C1095.363037,191.159851 1096.175171,191.138885 1096.268799,191.387848 
	C1099.045044,198.779938 1101.750122,206.198837 1104.179932,213.831772 
z"/>
<path fill="#007D47" opacity="1.000000" stroke="none" 
	d="
M1083.104492,238.138550 
	C1083.337769,238.098404 1083.631104,238.283463 1083.876465,238.734497 
	C1083.536987,238.861298 1083.315796,238.649063 1083.104492,238.138550 
z"/>
<path fill="#FFFFFF" opacity="1.000000" stroke="none" 
	d="
M16.999577,350.018738 
	C16.999577,346.213593 16.999577,342.904297 16.999577,339.159485 
	C22.907816,338.807800 28.985279,338.246216 32.816494,343.116119 
	C36.459988,347.747375 36.055305,353.607910 33.522182,358.946655 
	C30.258213,365.825714 23.379982,364.753967 16.999577,366.502380 
	C16.999577,360.756439 16.999577,355.635498 16.999577,350.018738 
z"/>
<path fill="#FFFFFF" opacity="1.000000" stroke="none" 
	d="
M720.362854,357.858246 
	C721.117798,359.633728 721.896912,361.125427 721.939453,362.637878 
	C722.093506,368.111023 722.003296,373.591095 721.999329,379.068573 
	C721.993591,387.051270 713.275574,393.045807 706.234009,389.457520 
	C703.982056,388.309967 701.499084,385.318878 701.259888,382.954926 
	C700.580566,376.242065 700.273926,369.317322 701.185059,362.662842 
	C702.261108,354.803345 708.901917,352.654327 716.162476,355.650635 
	C717.496704,356.201263 718.755493,356.934845 720.362854,357.858246 
z"/>
<path fill="#FFFFFF" opacity="1.000000" stroke="none" 
	d="
M862.133667,392.003601 
	C859.646118,388.282562 856.362549,384.809387 855.678345,380.883209 
	C854.352478,373.274567 853.660889,365.417389 858.887390,358.375702 
	C863.456726,352.219391 869.526489,351.796051 874.277832,357.761597 
	C879.529175,364.354980 879.504761,382.936249 874.180054,389.330841 
	C870.830017,393.354004 866.686096,394.398102 862.133667,392.003601 
z"/>
<path fill="#FFFFFF" opacity="1.000000" stroke="none" 
	d="
M164.014282,384.538483 
	C162.600937,374.974365 169.725723,373.098755 178.999191,372.088806 
	C178.999191,375.427979 178.670715,378.764191 179.075562,382.008942 
	C179.695496,386.977753 177.890976,389.931091 172.921463,390.500671 
	C168.634506,390.991974 165.515991,389.169647 164.014282,384.538483 
z"/>
<path fill="#FFFFFF" opacity="1.000000" stroke="none" 
	d="
M762.096313,372.995728 
	C764.184326,372.609833 765.849487,372.227417 768.000244,371.733490 
	C768.000244,375.918579 767.579895,379.600159 768.094360,383.146027 
	C768.962769,389.131073 764.927979,390.028137 760.838806,390.504303 
	C757.243774,390.922943 754.401062,389.148773 753.021301,385.609192 
	C750.795593,379.899353 754.596313,374.392181 762.096313,372.995728 
z"/>
<path fill="#FFFFFF" opacity="1.000000" stroke="none" 
	d="
M547.614014,385.133362 
	C544.284546,376.387634 544.068176,367.885284 548.687195,360.063049 
	C550.412659,357.141022 553.890320,353.809204 556.896667,353.456482 
	C560.591919,353.022980 564.147095,355.639069 566.117737,359.986633 
	C570.309448,369.234467 570.141052,378.096497 566.042908,387.263000 
	C564.202271,391.380219 560.672180,393.873779 557.110596,393.560181 
	C554.238281,393.307312 551.621460,389.757690 548.982788,387.560791 
	C548.417725,387.090271 548.246582,386.146637 547.614014,385.133362 
z"/>
<path fill="#FFFFFF" opacity="1.000000" stroke="none" 
	d="
M86.181061,391.312927 
	C78.247032,394.947083 74.599174,393.527374 70.972824,385.950165 
	C65.782242,375.104492 68.540077,361.729034 74.559135,355.958038 
	C78.166794,352.499054 84.928429,352.925537 87.545166,357.165314 
	C92.811317,365.697937 93.796997,374.845245 90.178497,384.273804 
	C89.265060,386.653900 87.707787,388.786896 86.181061,391.312927 
z"/>
<path fill="#FFFFFF" opacity="1.000000" stroke="none" 
	d="
M440.992004,369.000549 
	C437.866058,369.000549 435.223511,369.000549 432.179596,369.000549 
	C431.921844,363.468781 432.901459,358.492462 437.201721,355.159241 
	C438.831421,353.896027 442.320496,353.325897 444.054321,354.213348 
	C449.926056,357.218781 449.092712,363.036530 448.880951,369.000549 
	C446.343964,369.000549 443.909668,369.000549 440.992004,369.000549 
z"/>
<path fill="#FFFFFF" opacity="1.000000" stroke="none" 
	d="
M356.194641,369.000549 
	C354.584381,368.949188 353.447845,368.897827 350.729584,368.774994 
	C352.629242,364.234924 353.761658,360.064850 355.977081,356.584137 
	C359.135529,351.621826 366.005280,352.586639 367.876068,358.174072 
	C368.938202,361.346375 368.931061,364.876709 369.511780,369.000549 
	C364.833588,369.000549 360.750977,369.000549 356.194641,369.000549 
z"/>
</svg>